<svg width="710" height="217" viewBox="0 0 710 217" fill="none" xmlns="http://www.w3.org/2000/svg">
<path d="M144.647 68.3738C144.625 85.4773 144.626 102.57 144.649 119.651C144.651 120.564 144.712 121.279 144.831 121.794C144.703 121.899 144.514 121.858 144.263 121.671C132.446 112.919 120.626 104.17 108.803 95.4246C108.61 95.2812 108.463 95.2258 108.362 95.2582C108.304 95.1353 108.26 95.0627 108.229 95.0405C96.3783 86.2677 84.5293 77.494 72.682 68.7194C72.641 68.6904 72.612 68.652 72.5949 68.6042C72.5829 68.5684 72.5761 68.5462 72.5744 68.5376C72.5653 68.509 72.5462 68.4845 72.5206 68.4684C72.495 68.4524 72.4646 68.4459 72.435 68.4503C72.4054 68.4546 72.3786 68.4695 72.3595 68.4921C72.3405 68.5148 72.3304 68.5437 72.3311 68.5735C72.3397 86.0765 72.3397 103.529 72.3311 120.931C72.3311 121.247 72.3926 121.531 72.5155 121.784C72.3806 121.895 72.2219 121.883 72.0392 121.748C60.465 113.182 48.8925 104.613 37.3217 96.0418C36.8574 95.6969 36.4494 95.4178 36.0977 95.2044L0 68.4711C0.0495062 68.3567 0.109256 68.2739 0.179248 68.2227C12.1154 59.3764 24.0412 50.543 35.9569 41.7223C36.0082 41.6845 36.0703 41.6641 36.1343 41.6641C36.1984 41.6641 36.2609 41.6845 36.3128 41.7223L72.2057 68.2841C72.2774 68.337 72.3482 68.337 72.4182 68.2841L108.204 41.794C108.386 41.6592 108.569 41.6592 108.751 41.794L144.647 68.3738Z" fill="#6875EC"/>
<path d="M216.965 68.6657C216.718 68.693 216.435 68.8253 216.118 69.0626C211.112 72.7909 199.402 81.4587 180.985 95.0661C180.927 95.1088 180.901 95.1668 180.906 95.2403C180.751 95.2778 180.617 95.3384 180.504 95.4221C168.631 104.205 156.74 112.996 144.831 121.794C144.712 121.279 144.651 120.564 144.649 119.651C144.626 102.57 144.625 85.4773 144.647 68.3737L180.645 41.7274C180.696 41.6896 180.757 41.6692 180.821 41.6692C180.884 41.6692 180.945 41.6896 180.996 41.7274C192.974 50.601 204.932 59.4507 216.868 68.2764C217.001 68.3737 217.034 68.5035 216.965 68.6657Z" fill="#464F9F"/>
<path d="M0 68.4711L36.0977 95.2044C24.2435 103.981 12.4073 112.746 0.588954 121.5C0.48482 121.577 0.291064 121.647 0.00768364 121.71L0 68.4711Z" fill="#464F9F"/>
<path d="M108.362 95.2582L72.5156 121.784C72.3927 121.532 72.3312 121.247 72.3312 120.931C72.3398 103.529 72.3398 86.0765 72.3312 68.5735C72.3305 68.5437 72.3405 68.5148 72.3596 68.4922C72.3787 68.4695 72.4055 68.4547 72.4351 68.4503C72.4647 68.4459 72.4951 68.4524 72.5207 68.4684C72.5463 68.4845 72.5654 68.5091 72.5745 68.5377C72.5762 68.5462 72.583 68.5684 72.595 68.6042C72.612 68.652 72.6411 68.6904 72.682 68.7195C84.5294 77.494 96.3784 86.2677 108.229 95.0406C108.26 95.0628 108.304 95.1353 108.362 95.2582Z" fill="#464F9F"/>
<path d="M216.965 68.6656L216.945 121.776L180.906 95.2402C180.901 95.1668 180.927 95.1088 180.985 95.0661C199.402 81.4587 211.112 72.7909 216.118 69.0625C216.435 68.8253 216.718 68.693 216.965 68.6656Z" fill="#6875EC"/>
<path d="M36.0977 95.2045C36.4493 95.4179 36.8573 95.697 37.3217 96.0418C48.8925 104.613 60.465 113.182 72.0392 121.748C72.2218 121.883 72.3806 121.895 72.5155 121.784L108.362 95.2582C108.463 95.2258 108.61 95.2813 108.803 95.4247C120.626 104.17 132.446 112.919 144.263 121.672C144.514 121.858 144.703 121.899 144.831 121.794C156.74 112.996 168.631 104.205 180.504 95.4221C180.617 95.3385 180.751 95.2779 180.906 95.2403L216.945 121.776C216.962 121.804 216.972 121.835 216.975 121.871C216.984 121.955 216.955 122.021 216.888 122.071L144.808 175.422C144.761 175.457 144.703 175.476 144.644 175.476C144.585 175.476 144.528 175.457 144.48 175.422L108.582 148.833C108.519 148.786 108.456 148.786 108.393 148.833L72.5231 175.389C72.4622 175.434 72.3886 175.458 72.3132 175.458C72.2377 175.458 72.1641 175.434 72.1032 175.389L0.102374 122.089C0.0357962 122.039 0.00336179 121.974 0.0050689 121.892L0.00763011 121.71C0.29101 121.647 0.484767 121.577 0.588901 121.5C12.4072 112.746 24.2435 103.981 36.0977 95.2045Z" fill="#242953"/>
<path d="M245.709 79.0421L256.306 118.737L269.347 79.0421H282.062L295.104 118.737L305.7 79.0421H322.409L304.07 140.5H287.768L275.705 104.88L263.641 140.5H247.34L229 79.0421H245.709ZM341.553 109.771C341.553 112.216 342.015 114.471 342.938 116.536C343.862 118.601 345.112 120.394 346.688 121.916C348.264 123.437 350.084 124.633 352.149 125.502C354.268 126.317 356.496 126.725 358.833 126.725C361.169 126.725 363.37 126.317 365.435 125.502C367.554 124.633 369.402 123.437 370.977 121.916C372.608 120.394 373.885 118.601 374.808 116.536C375.732 114.471 376.194 112.216 376.194 109.771C376.194 107.326 375.732 105.071 374.808 103.006C373.885 100.941 372.608 99.1477 370.977 97.6262C369.402 96.1047 367.554 94.9364 365.435 94.1213C363.37 93.2519 361.169 92.8171 358.833 92.8171C356.496 92.8171 354.268 93.2519 352.149 94.1213C350.084 94.9364 348.264 96.1047 346.688 97.6262C345.112 99.1477 343.862 100.941 342.938 103.006C342.015 105.071 341.553 107.326 341.553 109.771ZM324.843 109.771C324.843 105.207 325.686 100.968 327.37 97.0556C329.055 93.0888 331.391 89.6383 334.38 86.704C337.369 83.7696 340.928 81.4874 345.058 79.8572C349.242 78.1727 353.833 77.3304 358.833 77.3304C363.778 77.3304 368.342 78.1727 372.526 79.8572C376.71 81.4874 380.297 83.7696 383.285 86.704C386.328 89.6383 388.692 93.0888 390.377 97.0556C392.061 100.968 392.903 105.207 392.903 109.771C392.903 114.336 392.061 118.601 390.377 122.568C388.692 126.48 386.328 129.904 383.285 132.838C380.297 135.772 376.71 138.082 372.526 139.766C368.342 141.397 363.778 142.212 358.833 142.212C353.833 142.212 349.242 141.397 345.058 139.766C340.928 138.082 337.369 135.772 334.38 132.838C331.391 129.904 329.055 126.48 327.37 122.568C325.686 118.601 324.843 114.336 324.843 109.771ZM418.97 106.511H421.986C425.138 106.511 427.556 105.859 429.241 104.554C430.925 103.25 431.767 101.376 431.767 98.9303C431.767 96.4851 430.925 94.6103 429.241 93.3062C427.556 92.002 425.138 91.35 421.986 91.35H418.97V106.511ZM454.101 140.5H434.213L418.97 116.862V140.5H402.995V79.0421H427.855C431.278 79.0421 434.267 79.5583 436.821 80.5908C439.375 81.5689 441.467 82.9274 443.097 84.6662C444.782 86.4051 446.032 88.4156 446.847 90.6979C447.716 92.9802 448.151 95.4254 448.151 98.0337C448.151 102.707 447.01 106.511 444.727 109.445C442.499 112.325 439.185 114.281 434.783 115.314L454.101 140.5ZM476.759 104.391L496.24 79.0421H515.965L491.594 108.141L518.247 140.5H497.544L476.759 113.847V140.5H460.783V79.0421H476.759V104.391ZM541.314 102.761H564.381V79.0421H580.357V140.5H564.381V115.151H541.314V140.5H525.338V79.0421H541.314V102.761ZM609.212 79.0421V112.461C609.212 114.254 609.266 116.102 609.375 118.003C609.538 119.851 609.945 121.536 610.597 123.057C611.304 124.579 612.39 125.828 613.858 126.806C615.325 127.73 617.39 128.192 620.052 128.192C622.715 128.192 624.753 127.73 626.165 126.806C627.633 125.828 628.719 124.579 629.426 123.057C630.132 121.536 630.54 119.851 630.648 118.003C630.811 116.102 630.893 114.254 630.893 112.461V79.0421H646.787V114.662C646.787 124.225 644.587 131.208 640.185 135.609C635.838 140.011 629.127 142.212 620.052 142.212C610.978 142.212 604.239 140.011 599.838 135.609C595.437 131.208 593.236 124.225 593.236 114.662V79.0421H609.212ZM675.677 128.111H679.181C683.203 128.111 686.083 127.594 687.821 126.562C689.56 125.529 690.43 123.872 690.43 121.59C690.43 119.308 689.56 117.65 687.821 116.618C686.083 115.585 683.203 115.069 679.181 115.069H675.677V128.111ZM675.677 103.169H678.611C683.61 103.169 686.11 101.185 686.11 97.2186C686.11 93.2519 683.61 91.2685 678.611 91.2685H675.677V103.169ZM659.701 79.0421H683.501C689.153 79.0421 693.446 80.4006 696.38 83.1176C699.314 85.8345 700.781 89.747 700.781 94.8549C700.781 97.9522 700.211 100.533 699.07 102.598C697.983 104.609 696.298 106.32 694.016 107.733C696.298 108.168 698.227 108.847 699.803 109.771C701.433 110.64 702.738 111.727 703.716 113.031C704.748 114.336 705.482 115.803 705.916 117.433C706.351 119.063 706.569 120.802 706.569 122.649C706.569 125.529 706.052 128.083 705.02 130.311C704.042 132.539 702.629 134.414 700.781 135.935C698.988 137.457 696.787 138.598 694.179 139.359C691.571 140.12 688.637 140.5 685.376 140.5H659.701V79.0421Z" fill="#252525"/>
</svg>
