<svg width="22" height="22" viewBox="0 0 22 22" fill="none" xmlns="http://www.w3.org/2000/svg">
<path fill-rule="evenodd" clip-rule="evenodd" d="M17.0533 18.096C17.5353 18.096 17.926 17.7053 17.926 17.2233C17.926 16.7413 17.5353 16.3506 17.0533 16.3506C16.5713 16.3506 16.1806 16.7413 16.1806 17.2233C16.1806 17.7053 16.5713 18.096 17.0533 18.096ZM17.0533 19.8413C18.4992 19.8413 19.6714 18.6692 19.6714 17.2233C19.6714 15.7774 18.4992 14.6052 17.0533 14.6052C15.6074 14.6052 14.4352 15.7774 14.4352 17.2233C14.4352 18.6692 15.6074 19.8413 17.0533 19.8413Z" fill="#777E91"/>
<path fill-rule="evenodd" clip-rule="evenodd" d="M13.9989 4.13319C12.794 4.13319 11.8172 5.10997 11.8172 6.3149V15.9144C11.8172 18.0833 10.059 19.8415 7.8901 19.8415C5.72123 19.8415 3.96301 18.0833 3.96301 15.9144V9.3693C3.96301 8.88733 4.35373 8.49661 4.8357 8.49661C5.31767 8.49661 5.70838 8.88733 5.70838 9.3693V15.9144C5.70838 17.1194 6.68517 18.0962 7.8901 18.0962C9.09502 18.0962 10.0718 17.1194 10.0718 15.9144V6.3149C10.0718 4.14603 11.83 2.38782 13.9989 2.38782C16.1678 2.38782 17.926 4.14603 17.926 6.3149V11.9874C17.926 12.4693 17.5353 12.86 17.0533 12.86C16.5713 12.86 16.1806 12.4693 16.1806 11.9874V6.3149C16.1806 5.10997 15.2038 4.13319 13.9989 4.13319Z" fill="#777E91"/>
<path d="M4.08185 2.80735C4.4186 2.23007 5.25271 2.23007 5.58946 2.80735L7.12449 5.43882C7.46386 6.0206 7.04421 6.75123 6.37068 6.75123H3.30064C2.6271 6.75123 2.20746 6.0206 2.54683 5.43882L4.08185 2.80735Z" fill="#777E91"/>
</svg>
